# xmcd CD database file
#
# Track frame offsets:
#	150
#	30313
#	68750
#	84534
#	107738
#	121087
#	139920
#	164058
#	177078
#	188660
#	213644
#	224408
#	243571
#	268649
#	282642
#	299070
#	314529
#	326234
#
# Disc length: 4576 seconds
#
# Revision: 0
# Processed by: cddbd v1.5.2PL0 Copyright (c) Steve Scherf et al.
# Submitted via: CDex 1.75
#
DISCID=2411de12
DTITLE=Various Artist - Meiban Hakken-Den Sample
DYEAR=2017
DGENRE=Country
TTITLE0=Why Does Love Got To Be So Sad
TTITLE1=American Pie
TTITLE2=Love Has No Pride
TTITLE3=It's A Hard Rain Gonna Fall
TTITLE4=Franny
TTITLE5=Time
TTITLE6=Band Of Steel
TTITLE7=Keep On Trying
TTITLE8=Messin' In Muscle Shoals
TTITLE9=The Sweet Forever
TTITLE10=After Midnight
TTITLE11=Sigmund's Blues
TTITLE12=Country Boy
TTITLE13=Wichita Lineman
TTITLE14=7 Bridgers Road
TTITLE15=Going Down To See Bessie
TTITLE16=Something In The Way He Moves
TTITLE17=Hush
EXTD=YEAR: 2017
EXTT0=
EXTT1=
EXTT2=
EXTT3=
EXTT4=
EXTT5=
EXTT6=
EXTT7=
EXTT8=
EXTT9=
EXTT10=
EXTT11=
EXTT12=
EXTT13=
EXTT14=
EXTT15=
EXTT16=
EXTT17=
PLAYORDER=
